<mxfile host="app.diagrams.net" modified="2023-01-30T18:15:44.751Z" agent="5.0 (Windows NT 10.0; Win64; x64) AppleWebKit/537.36 (KHTML, like Gecko) Chrome/109.0.0.0 Safari/537.36" etag="bv7LI160erE49Gj7xXgl" version="20.8.13" type="github">
  <diagram id="C5RBs43oDa-KdzZeNtuy" name="Page-1">
    <mxGraphModel dx="1049" dy="2933" grid="1" gridSize="10" guides="1" tooltips="1" connect="1" arrows="1" fold="1" page="1" pageScale="1" pageWidth="827" pageHeight="1169" background="#FFFFFF" math="0" shadow="0">
      <root>
        <mxCell id="WIyWlLk6GJQsqaUBKTNV-0" />
        <mxCell id="WIyWlLk6GJQsqaUBKTNV-1" parent="WIyWlLk6GJQsqaUBKTNV-0" />
        <mxCell id="8JsC2-qTZNipKP0RbXAI-19" value="3 planten" style="swimlane;fontStyle=0;childLayout=stackLayout;horizontal=1;startSize=30;horizontalStack=0;resizeParent=1;resizeParentMax=0;resizeLast=0;collapsible=1;marginBottom=0;whiteSpace=wrap;html=1;" vertex="1" parent="WIyWlLk6GJQsqaUBKTNV-1">
          <mxGeometry x="226" y="-1909" width="140" height="120" as="geometry" />
        </mxCell>
        <mxCell id="8JsC2-qTZNipKP0RbXAI-20" value="&lt;span style=&quot;background-color: initial;&quot;&gt;- Bloeiende plant&lt;/span&gt;" style="text;strokeColor=none;fillColor=none;align=left;verticalAlign=middle;spacingLeft=4;spacingRight=4;overflow=hidden;points=[[0,0.5],[1,0.5]];portConstraint=eastwest;rotatable=0;whiteSpace=wrap;html=1;" vertex="1" parent="8JsC2-qTZNipKP0RbXAI-19">
          <mxGeometry y="30" width="140" height="30" as="geometry" />
        </mxCell>
        <mxCell id="8JsC2-qTZNipKP0RbXAI-21" value="- Bladplant" style="text;strokeColor=none;fillColor=none;align=left;verticalAlign=middle;spacingLeft=4;spacingRight=4;overflow=hidden;points=[[0,0.5],[1,0.5]];portConstraint=eastwest;rotatable=0;whiteSpace=wrap;html=1;" vertex="1" parent="8JsC2-qTZNipKP0RbXAI-19">
          <mxGeometry y="60" width="140" height="30" as="geometry" />
        </mxCell>
        <mxCell id="8JsC2-qTZNipKP0RbXAI-22" value="- Palmplant" style="text;strokeColor=none;fillColor=none;align=left;verticalAlign=middle;spacingLeft=4;spacingRight=4;overflow=hidden;points=[[0,0.5],[1,0.5]];portConstraint=eastwest;rotatable=0;whiteSpace=wrap;html=1;" vertex="1" parent="8JsC2-qTZNipKP0RbXAI-19">
          <mxGeometry y="90" width="140" height="30" as="geometry" />
        </mxCell>
        <mxCell id="8JsC2-qTZNipKP0RbXAI-23" value="&lt;h1&gt;De praktische proef&lt;/h1&gt;" style="text;html=1;strokeColor=none;fillColor=none;spacing=5;spacingTop=-20;whiteSpace=wrap;overflow=hidden;rounded=0;align=center;" vertex="1" parent="WIyWlLk6GJQsqaUBKTNV-1">
          <mxGeometry x="294" y="-1960" width="240" height="40" as="geometry" />
        </mxCell>
        <mxCell id="8JsC2-qTZNipKP0RbXAI-24" value="" style="endArrow=classic;html=1;rounded=0;exitX=0.497;exitY=1.018;exitDx=0;exitDy=0;exitPerimeter=0;entryX=0.5;entryY=0;entryDx=0;entryDy=0;" edge="1" parent="WIyWlLk6GJQsqaUBKTNV-1" source="8JsC2-qTZNipKP0RbXAI-22" target="8JsC2-qTZNipKP0RbXAI-26">
          <mxGeometry width="50" height="50" relative="1" as="geometry">
            <mxPoint x="296" y="-1779" as="sourcePoint" />
            <mxPoint x="295.8186006334581" y="-1749" as="targetPoint" />
          </mxGeometry>
        </mxCell>
        <mxCell id="8JsC2-qTZNipKP0RbXAI-49" style="edgeStyle=orthogonalEdgeStyle;rounded=0;orthogonalLoop=1;jettySize=auto;html=1;entryX=0;entryY=0.5;entryDx=0;entryDy=0;fontSize=12;" edge="1" parent="WIyWlLk6GJQsqaUBKTNV-1" source="8JsC2-qTZNipKP0RbXAI-26" target="8JsC2-qTZNipKP0RbXAI-44">
          <mxGeometry relative="1" as="geometry" />
        </mxCell>
        <mxCell id="8JsC2-qTZNipKP0RbXAI-26" value="&lt;font style=&quot;border-color: var(--border-color); font-size: 12px;&quot;&gt;Raspberry Pi&lt;br&gt;met sensoren&lt;/font&gt;" style="rounded=1;whiteSpace=wrap;html=1;" vertex="1" parent="WIyWlLk6GJQsqaUBKTNV-1">
          <mxGeometry x="236" y="-1749" width="120" height="60" as="geometry" />
        </mxCell>
        <mxCell id="8JsC2-qTZNipKP0RbXAI-29" value="&lt;font style=&quot;font-size: 12px;&quot;&gt;Data&lt;br&gt;&lt;/font&gt;" style="rounded=1;whiteSpace=wrap;html=1;fontSize=5;" vertex="1" parent="WIyWlLk6GJQsqaUBKTNV-1">
          <mxGeometry x="236" y="-1639" width="120" height="60" as="geometry" />
        </mxCell>
        <mxCell id="8JsC2-qTZNipKP0RbXAI-30" value="" style="endArrow=classic;html=1;rounded=0;fontSize=5;exitX=0.5;exitY=1;exitDx=0;exitDy=0;" edge="1" parent="WIyWlLk6GJQsqaUBKTNV-1" source="8JsC2-qTZNipKP0RbXAI-26" target="8JsC2-qTZNipKP0RbXAI-29">
          <mxGeometry width="50" height="50" relative="1" as="geometry">
            <mxPoint x="282" y="-1619" as="sourcePoint" />
            <mxPoint x="332" y="-1669" as="targetPoint" />
          </mxGeometry>
        </mxCell>
        <mxCell id="8JsC2-qTZNipKP0RbXAI-52" style="edgeStyle=orthogonalEdgeStyle;rounded=0;orthogonalLoop=1;jettySize=auto;html=1;fontSize=12;" edge="1" parent="WIyWlLk6GJQsqaUBKTNV-1" source="8JsC2-qTZNipKP0RbXAI-32" target="8JsC2-qTZNipKP0RbXAI-34">
          <mxGeometry relative="1" as="geometry" />
        </mxCell>
        <mxCell id="8JsC2-qTZNipKP0RbXAI-32" value="&lt;font style=&quot;font-size: 12px;&quot;&gt;Website&lt;br&gt;&lt;/font&gt;" style="rounded=1;whiteSpace=wrap;html=1;fontSize=5;" vertex="1" parent="WIyWlLk6GJQsqaUBKTNV-1">
          <mxGeometry x="236" y="-1529" width="120" height="60" as="geometry" />
        </mxCell>
        <mxCell id="8JsC2-qTZNipKP0RbXAI-33" value="" style="endArrow=classic;html=1;rounded=0;fontSize=5;exitX=0.5;exitY=1;exitDx=0;exitDy=0;" edge="1" parent="WIyWlLk6GJQsqaUBKTNV-1" target="8JsC2-qTZNipKP0RbXAI-32">
          <mxGeometry width="50" height="50" relative="1" as="geometry">
            <mxPoint x="296" y="-1579" as="sourcePoint" />
            <mxPoint x="332" y="-1559" as="targetPoint" />
          </mxGeometry>
        </mxCell>
        <mxCell id="8JsC2-qTZNipKP0RbXAI-34" value="&lt;font style=&quot;font-size: 10px;&quot;&gt;Gebruiker&lt;/font&gt;" style="shape=umlActor;verticalLabelPosition=bottom;verticalAlign=top;html=1;outlineConnect=0;fontSize=12;" vertex="1" parent="WIyWlLk6GJQsqaUBKTNV-1">
          <mxGeometry x="452" y="-1529" width="30" height="60" as="geometry" />
        </mxCell>
        <mxCell id="8JsC2-qTZNipKP0RbXAI-43" value="Sensoren" style="swimlane;fontStyle=0;childLayout=stackLayout;horizontal=1;startSize=30;horizontalStack=0;resizeParent=1;resizeParentMax=0;resizeLast=0;collapsible=1;marginBottom=0;whiteSpace=wrap;html=1;" vertex="1" parent="WIyWlLk6GJQsqaUBKTNV-1">
          <mxGeometry x="432" y="-1764" width="188" height="90" as="geometry" />
        </mxCell>
        <mxCell id="8JsC2-qTZNipKP0RbXAI-44" value="&lt;span style=&quot;background-color: initial;&quot;&gt;- 3 Bodemvochtigheidssensoren&lt;/span&gt;" style="text;strokeColor=none;fillColor=none;align=left;verticalAlign=middle;spacingLeft=4;spacingRight=4;overflow=hidden;points=[[0,0.5],[1,0.5]];portConstraint=eastwest;rotatable=0;whiteSpace=wrap;html=1;" vertex="1" parent="8JsC2-qTZNipKP0RbXAI-43">
          <mxGeometry y="30" width="188" height="30" as="geometry" />
        </mxCell>
        <mxCell id="8JsC2-qTZNipKP0RbXAI-45" value="- 1 WPSE342" style="text;strokeColor=none;fillColor=none;align=left;verticalAlign=middle;spacingLeft=4;spacingRight=4;overflow=hidden;points=[[0,0.5],[1,0.5]];portConstraint=eastwest;rotatable=0;whiteSpace=wrap;html=1;" vertex="1" parent="8JsC2-qTZNipKP0RbXAI-43">
          <mxGeometry y="60" width="188" height="30" as="geometry" />
        </mxCell>
        <mxCell id="8JsC2-qTZNipKP0RbXAI-60" style="edgeStyle=orthogonalEdgeStyle;rounded=0;orthogonalLoop=1;jettySize=auto;html=1;fontSize=10;" edge="1" parent="WIyWlLk6GJQsqaUBKTNV-1" source="8JsC2-qTZNipKP0RbXAI-53">
          <mxGeometry relative="1" as="geometry">
            <mxPoint x="235.37861560639874" y="-1723.2324560256232" as="targetPoint" />
            <Array as="points">
              <mxPoint x="216" y="-1389" />
              <mxPoint x="216" y="-1723" />
            </Array>
          </mxGeometry>
        </mxCell>
        <mxCell id="8JsC2-qTZNipKP0RbXAI-53" value="&lt;font style=&quot;font-size: 12px;&quot;&gt;Reageert&lt;br&gt;&lt;/font&gt;" style="rounded=1;whiteSpace=wrap;html=1;fontSize=5;" vertex="1" parent="WIyWlLk6GJQsqaUBKTNV-1">
          <mxGeometry x="236" y="-1419" width="120" height="60" as="geometry" />
        </mxCell>
        <mxCell id="8JsC2-qTZNipKP0RbXAI-54" value="" style="endArrow=classic;html=1;rounded=0;fontSize=5;exitX=0.5;exitY=1;exitDx=0;exitDy=0;" edge="1" parent="WIyWlLk6GJQsqaUBKTNV-1" target="8JsC2-qTZNipKP0RbXAI-53">
          <mxGeometry width="50" height="50" relative="1" as="geometry">
            <mxPoint x="296" y="-1469" as="sourcePoint" />
            <mxPoint x="332" y="-1449" as="targetPoint" />
          </mxGeometry>
        </mxCell>
        <mxCell id="8JsC2-qTZNipKP0RbXAI-55" value="" style="endArrow=classic;html=1;rounded=0;fontSize=12;entryX=1;entryY=0.5;entryDx=0;entryDy=0;" edge="1" parent="WIyWlLk6GJQsqaUBKTNV-1" source="8JsC2-qTZNipKP0RbXAI-34" target="8JsC2-qTZNipKP0RbXAI-53">
          <mxGeometry width="50" height="50" relative="1" as="geometry">
            <mxPoint x="422" y="-1449" as="sourcePoint" />
            <mxPoint x="482" y="-1399" as="targetPoint" />
          </mxGeometry>
        </mxCell>
        <mxCell id="8JsC2-qTZNipKP0RbXAI-57" value="&lt;font style=&quot;font-size: 10px;&quot;&gt;Automatisch&lt;/font&gt;" style="text;html=1;align=left;verticalAlign=middle;resizable=0;points=[];autosize=1;strokeColor=none;fillColor=none;fontSize=12;" vertex="1" parent="WIyWlLk6GJQsqaUBKTNV-1">
          <mxGeometry x="298" y="-1460" width="73" height="26" as="geometry" />
        </mxCell>
        <mxCell id="8JsC2-qTZNipKP0RbXAI-58" value="Manueel" style="text;html=1;align=left;verticalAlign=middle;resizable=0;points=[];autosize=1;strokeColor=none;fillColor=none;fontSize=10;" vertex="1" parent="WIyWlLk6GJQsqaUBKTNV-1">
          <mxGeometry x="402" y="-1444" width="60" height="30" as="geometry" />
        </mxCell>
      </root>
    </mxGraphModel>
  </diagram>
</mxfile>
